<?xml version="1.0" standalone="no"?>
<!DOCTYPE svg PUBLIC "-//W3C//DTD SVG 20010904//EN"
 "http://www.w3.org/TR/2001/REC-SVG-20010904/DTD/svg10.dtd">
<svg version="1.0" xmlns="http://www.w3.org/2000/svg"
 width="235.000000pt" height="237.000000pt" viewBox="0 0 235.000000 237.000000"
 preserveAspectRatio="xMidYMid meet">
<metadata>
Created by potrace 1.16, written by Peter Selinger 2001-2019
</metadata>
<g transform="translate(0.000000,237.000000) scale(0.100000,-0.100000)"
fill="#000000" stroke="none">
<path d="M592 1919 c-95 -18 -168 -75 -218 -169 -17 -31 -19 -63 -22 -258 -2
-139 1 -243 8 -277 23 -111 108 -238 204 -304 23 -16 149 -78 281 -138 132
-61 339 -156 461 -212 l221 -101 90 0 c207 0 305 46 346 162 36 100 47 150 47
205 0 76 -23 183 -52 240 -30 60 -104 134 -163 163 l-46 22 46 29 c53 34 99
102 122 179 29 100 -5 297 -60 348 -36 33 -117 70 -202 93 -76 21 -102 22
-550 25 -259 1 -489 -2 -513 -7z m603 -34 c139 -39 224 -105 271 -209 24 -51
29 -78 32 -167 7 -176 -24 -250 -154 -374 -57 -55 -75 -80 -84 -114 -20 -75
-7 -107 132 -327 71 -113 128 -207 126 -208 -9 -7 -916 418 -960 450 -94 69
-167 192 -188 315 -7 39 -10 141 -8 250 3 168 5 189 27 237 28 62 103 134 164
156 63 23 555 16 642 -9z"/>
<path d="M804 1535 c-50 -29 -74 -76 -74 -140 0 -75 36 -126 107 -150 25 -9
39 -20 41 -34 4 -28 20 -26 68 5 128 83 134 269 10 328 -49 23 -104 20 -152
-9z"/>
<path d="M1190 1549 c-61 -24 -100 -85 -100 -154 0 -75 36 -126 107 -150 25
-9 39 -20 41 -34 4 -28 19 -26 74 8 64 41 103 120 95 192 -13 111 -118 177
-217 138z"/>
<path d="M365 890 c-25 -28 -18 -185 12 -251 27 -60 92 -125 152 -153 44 -20
61 -21 439 -24 323 -2 392 -1 392 11 0 16 14 9 -506 246 -231 105 -432 191
-446 191 -14 0 -33 -9 -43 -20z m510 -200 c248 -112 455 -207 460 -212 6 -5
-146 -8 -365 -6 -367 3 -376 3 -426 26 -99 45 -167 141 -180 254 -9 77 2 127
29 137 12 5 24 8 27 7 3 -2 208 -94 455 -206z"/>
</g>
</svg>
